<svg xmlns="http://www.w3.org/2000/svg" width="107.923" height="69.395" viewBox="0 0 107.923 69.395">
  <g id="Grupo_899" data-name="Grupo 899" transform="translate(0 -23.558)">
    <g id="Grupo_898" data-name="Grupo 898" transform="translate(0 23.558)">
      <path id="Trazado_947" data-name="Trazado 947" d="M93.107,93.167l2.043,1.04A26.021,26.021,0,1,1,106.363,124.7c-.257.246-.537.5-.805.771q-9.159,9.157-18.316,18.318a6.139,6.139,0,1,1-8.848-8.5c3.008-3.072,6.07-6.092,9.112-9.129q5.049-5.041,10.126-10.094c-.565-1.144-1.053-2.27-1.679-3.313a1.534,1.534,0,0,0-1.146-.415c-6.59-.025-13.18-.017-19.77-.018-2.647,0-3.389-.735-3.371-3.4.014-1.972-.067-3.958.141-5.912a11.623,11.623,0,0,1,6.529-9.384c.155-.083.319-.149.478-.225.124-.06.245-.125.49-.249a8.9,8.9,0,0,1-1.68-8.238,8.525,8.525,0,0,1,3.5-4.758,8.977,8.977,0,0,1,11.127.808c3.379,3.1,3.683,7.255.857,12.208m49.572,10.645c.012-15.23-12.473-26.023-26.15-23.934a22.857,22.857,0,0,0-15.9,34.849c.934,1.476.893,1.892-.326,3.111q-9.569,9.575-19.139,19.148c-1.739,1.74-1.965,3.445-.635,4.792s3.07,1.149,4.786-.566q9.537-9.532,19.068-19.069c1.382-1.382,1.652-1.374,3.354-.365,7.548,4.474,15.33,4.859,23.026.66,7.788-4.249,11.568-11.137,11.912-18.626M94.6,109.066c.03-.141.069-.214.055-.274A26.626,26.626,0,0,1,94.232,98.2c.041-.246,0-.654-.153-.763-1.569-1.085-3.153-2.178-5.236-1.556a9.5,9.5,0,0,1-5.416-.009,3.659,3.659,0,0,0-1.644-.111,8.5,8.5,0,0,0-6.7,6.819,49.261,49.261,0,0,0-.053,6.488ZM91.927,87.434a5.744,5.744,0,1,0-5.75,5.684,5.737,5.737,0,0,0,5.75-5.684" transform="translate(-37.944 -76.459)" fill="#001284"/>
      <path id="Trazado_951" data-name="Trazado 951" d="M7.627,95.563C3.9,90.4,5.986,85.417,8.79,83.086a9.04,9.04,0,0,1,11.648.133c2.817,2.441,4.636,7.41.99,12.347.319.159.63.3.932.466a11.833,11.833,0,0,1,6.659,10.629c.058,1.8.022,3.6.008,5.392a2.371,2.371,0,0,1-2.586,2.669q-11.892.037-23.783,0A2.371,2.371,0,0,1,.049,112.07a60.4,60.4,0,0,1,.076-6.444A11.687,11.687,0,0,1,6.9,95.951c.244-.123.483-.256.732-.388m18.225,15.946c0-1.712.022-3.294,0-4.875A8.762,8.762,0,0,0,19.013,98.2a3.436,3.436,0,0,0-1.644.063,9.806,9.806,0,0,1-5.613.017,3.514,3.514,0,0,0-1.642-.087,8.708,8.708,0,0,0-4.863,2.962c-2.649,3.086-1.978,6.756-2,10.356ZM14.527,84.173a5.682,5.682,0,1,0,5.785,5.667,5.777,5.777,0,0,0-5.785-5.667" transform="translate(0 -78.877)" fill="#001284"/>
      <path id="Trazado_952" data-name="Trazado 952" d="M171.594,109.13a20.058,20.058,0,1,1-20.042-20.05,20.09,20.09,0,0,1,20.042,20.05m-7.356,11.03a16.839,16.839,0,0,0-24.916-22.648c-6.589,6.871-5.643,17.2-.46,22.618a11.979,11.979,0,0,1,5.987-5.546c-2.764-4.872-2.341-8.966,1.194-11.936a8.623,8.623,0,0,1,10.918-.059c3.577,2.908,4.019,6.909,1.286,12a11.991,11.991,0,0,1,5.991,5.568m-22.849,2.374c5.059,4.434,14.464,4.618,19.865.417.488-.38.449-.687.225-1.153A8.132,8.132,0,0,0,156,117.22a3.981,3.981,0,0,0-1.933.042,9.059,9.059,0,0,1-5.1-.031,3.061,3.061,0,0,0-1.016-.211,8.05,8.05,0,0,0-6.568,5.514m10.118-8.09a5.3,5.3,0,1,0,.066-10.6,5.3,5.3,0,1,0-.066,10.6" transform="translate(-69.616 -83.141)" fill="#001284"/>
    </g>
  </g>
</svg>
