<svg id="Grupo_835" data-name="Grupo 835" xmlns="http://www.w3.org/2000/svg" xmlns:xlink="http://www.w3.org/1999/xlink" width="79.502" height="81.716" viewBox="0 0 79.502 81.716">
  <defs>
    <clipPath id="clip-path">
      <rect id="Rectángulo_3921" data-name="Rectángulo 3921" width="79.502" height="81.716" fill="#051db1"/>
    </clipPath>
  </defs>
  <g id="Grupo_834" data-name="Grupo 834" clip-path="url(#clip-path)">
    <path id="Trazado_889" data-name="Trazado 889" d="M10.508,66.949c-.267-.226-.483-.391-.679-.576a8.615,8.615,0,0,1,.678-13.2,1.349,1.349,0,0,0,.593-1.231c-.024-2.636-.011-5.272-.011-7.908v-.921c-1.017,0-1.967,0-2.917,0-2.206-.01-3.289-1.089-3.29-3.287,0-3.121-.234-2.561,2.285-4.03q15.206-8.87,30.438-17.7a1.447,1.447,0,0,0,.855-1.464c-.039-4.915-.02-9.83-.019-14.745a3.814,3.814,0,0,1,.031-.821,1.306,1.306,0,0,1,2.566-.027,5.735,5.735,0,0,1,.073.911H42c3.431,0,6.862.006,10.293-.006a1.551,1.551,0,0,1,1.564.679,1.531,1.531,0,0,1-.293,1.749C52.9,5.322,52.282,6.3,51.594,7.22A.771.771,0,0,0,51.612,8.3c.677.932,1.306,1.9,1.968,2.843a1.537,1.537,0,0,1,.306,1.679,1.481,1.481,0,0,1-1.538.715c-3.431-.011-6.862-.005-10.293-.005h-.979c0,1.307-.032,2.535.028,3.759.011.231.351.509.6.656q10.155,5.937,20.326,11.847c3.839,2.235,7.671,4.482,11.524,6.692a1.857,1.857,0,0,1,1.083,1.854c-.032.6.006,1.208-.009,1.812a2.817,2.817,0,0,1-2.95,2.962c-1.041.03-2.083.005-3.187.005-.025.25-.064.458-.065.666,0,2.773-.018,5.547.017,8.32a1.361,1.361,0,0,0,.451.936,8.667,8.667,0,0,1,.612,13.5,5.468,5.468,0,0,1-.58.4,16.2,16.2,0,0,1,6.265,4.014,15.461,15.461,0,0,1,4.273,8.89c.176,1.363-.29,1.877-1.667,1.877q-14.039,0-28.078,0H1.964c-1.72,0-2.169-.438-1.885-2.12A15.6,15.6,0,0,1,9.8,67.245c.2-.085.393-.165.708-.3m57.74-30.432c-.3-.2-.458-.329-.634-.432q-13.648-7.945-27.291-15.9a1.01,1.01,0,0,0-1.184.041Q25.678,28.085,12.2,35.915c-.272.158-.535.332-.967.6ZM44.414,43.163v.889c0,2.635.015,5.269-.012,7.9a1.349,1.349,0,0,0,.614,1.219,8.632,8.632,0,0,1,.6,13.255c-.178.166-.376.311-.642.529a16.381,16.381,0,0,1,6.8,4.615,16.321,16.321,0,0,1,6.692-4.583c-.118-.137-.165-.2-.224-.258a8.656,8.656,0,0,1,.4-13.7,1.387,1.387,0,0,0,.42-.954c.037-2.085.019-4.171.019-6.257V43.163ZM34.461,66.99c-.13-.14-.215-.244-.312-.335-4.312-4.037-4.074-9.98.522-13.645a1.387,1.387,0,0,0,.413-.962c.032-2.716.019-5.433.016-8.15,0-.239-.03-.478-.045-.713H20.43c0,2.922.016,5.775-.013,8.627a1.59,1.59,0,0,0,.676,1.438,8.613,8.613,0,0,1,.435,13.255,5.808,5.808,0,0,1-.651.43,16.683,16.683,0,0,1,6.881,4.627,16.17,16.17,0,0,1,6.7-4.574M52.6,79.051c-.987-6.038-7.369-10.806-13.678-10.308-5.94.468-11.936,5.635-11.943,10.308Zm-28.5,0c.224-.778.4-1.551.673-2.292a12.227,12.227,0,0,1,.995-2.248,1,1,0,0,0-.184-1.413,13.265,13.265,0,0,0-19.907.275,12.416,12.416,0,0,0-2.809,5.677Zm31.483-.02H76.619a2.085,2.085,0,0,0-.024-.289A13.129,13.129,0,0,0,64.53,68.758a12.852,12.852,0,0,0-10.742,4.536.939.939,0,0,0-.241.754c.639,1.65,1.333,3.279,2.04,4.984M39.735,66.075a6.027,6.027,0,1,0-6.024-6.029,6.047,6.047,0,0,0,6.024,6.029m30.05-6.011a6.031,6.031,0,1,0-6.017,6.011,6,6,0,0,0,6.017-6.011M9.73,60.07a6.032,6.032,0,1,0,5.979-6.048A6,6,0,0,0,9.73,60.07M7.6,39.221c-.164,1.257-.164,1.259.947,1.259H70.97c1.125,0,1.2-.108.893-1.259ZM50.155,4.668H41.116v6.173h9.045c-.376-.557-.69-1.027-1.009-1.493-1.093-1.6-1.093-1.6-.022-3.167.324-.474.644-.951,1.025-1.512M17.741,43.17H13.785v8.3h3.956Zm44.041,8.3h3.946V43.158H61.782Zm-23.991,0h3.932V43.156H37.791Z" transform="translate(0 0)" fill="#051db1"/>
    <path id="Trazado_890" data-name="Trazado 890" d="M160.382,111.02a5.541,5.541,0,1,1-5.584,5.523,5.561,5.561,0,0,1,5.584-5.523m-.046,8.446a2.906,2.906,0,1,0-2.9-2.953,2.923,2.923,0,0,0,2.9,2.953" transform="translate(-120.605 -86.497)" fill="#051db1"/>
  </g>
</svg>
