<svg id="Grupo_831" data-name="Grupo 831" xmlns="http://www.w3.org/2000/svg" xmlns:xlink="http://www.w3.org/1999/xlink" width="87.986" height="88.009" viewBox="0 0 87.986 88.009">
  <defs>
    <clipPath id="clip-path">
      <rect id="Rectángulo_3919" data-name="Rectángulo 3919" width="87.986" height="88.009" fill="#051db1"/>
    </clipPath>
  </defs>
  <g id="Grupo_830" data-name="Grupo 830" clip-path="url(#clip-path)">
    <path id="Trazado_872" data-name="Trazado 872" d="M53.6,0c.179.074.355.156.537.221A3.524,3.524,0,0,1,56.544,3.8q.011,8.722,0,17.444v1.119h.995q7.306,0,14.612,0c2.73,0,4.107,1.389,4.108,4.137q0,6.918,0,13.835a3.439,3.439,0,0,1-.111,1.014,1.156,1.156,0,0,1-1.323.851A1.171,1.171,0,0,1,73.7,41.09a7.556,7.556,0,0,1-.02-.859q0-6.832,0-13.663c0-1.4-.237-1.627-1.659-1.627H56.6v5.226c.286.015.586.044.887.044,3.238,0,6.475,0,9.713,0,2,0,2.9.892,2.9,2.866q.007,2.621,0,5.242c0,2.043-.893,2.946-2.912,2.948q-4.813.005-9.627,0H56.6v4.7h1.059q4.727,0,9.455,0c2.1,0,2.988.894,2.991,2.97,0,1.8.009,3.609,0,5.414a2.474,2.474,0,0,1-2.732,2.705c-3.266.009-6.532,0-9.8,0H56.6v4.679h.971c3.209,0,6.418-.005,9.627,0,1.972,0,2.9.935,2.908,2.888,0,1.833.009,3.667,0,5.5a2.478,2.478,0,0,1-2.726,2.718c-3.266.014-6.532,0-9.8,0H56.6v4.648H73.683V76.452q0-14.351,0-28.7a7.153,7.153,0,0,1,.023-.944,1.26,1.26,0,0,1,2.445-.238,3.555,3.555,0,0,1,.106,1.016q.009,7.648,0,15.3v1.055a6.842,6.842,0,0,1,4.477,3.012,2.324,2.324,0,0,0,1.552,1.133,7.151,7.151,0,0,1,4.956,9.229c-.224.66-.315,1.141.211,1.672a3.928,3.928,0,0,1,.528.958v5.673c-.712,1.834-2.1,2.4-3.995,2.4q-40.186-.046-80.373-.021c-1.956,0-3.339-.753-3.511-2.327A48.357,48.357,0,0,1,.08,79.848a.93.93,0,0,1,.245-.628c.806-.707.488-1.457.246-2.3a7.234,7.234,0,0,1,5.453-8.986,1.342,1.342,0,0,0,.8-.483A7.191,7.191,0,0,1,13.3,63.774c.168-.005.337-.015.653-.029V62.565q0-20.325,0-40.65a8.149,8.149,0,0,1,.029-1.03,1.176,1.176,0,0,1,1.256-1.151A1.161,1.161,0,0,1,16.5,20.873a9.718,9.718,0,0,1,.031,1.115q0,27.158,0,54.315v1.221H28.1V76.516q0-6.531,0-13.063c0-1.9.693-2.595,2.578-2.6q4.427,0,8.854,0c2.095,0,2.737.632,2.737,2.7q0,6.489,0,12.977v.979h11.7v-.9q0-36.225,0-72.449c0-1.316-.23-1.548-1.546-1.548q-17.149,0-34.3,0c-1.364,0-1.589.227-1.589,1.609q0,5.028,0,10.055c0,.342.084.781-.089,1.005-.3.387-.765.877-1.17.885s-.893-.462-1.206-.838c-.179-.215-.106-.66-.107-1q-.009-4.9,0-9.8C13.954,1.8,14.49,1,16.971,0ZM43.954,80.142H4.079c-.229,0-.459.009-.688,0-.607-.027-.892.225-.872.865.03.973.008,1.947.008,2.921,0,1.482,0,1.482,1.448,1.482H83.984c.172,0,.344-.01.515,0,.65.042.942-.229.917-.908-.035-.972-.009-1.947-.009-2.921,0-1.439,0-1.439-1.406-1.44H43.954M30.723,77.5H39.64v-14H30.723Zm-16.835.059V66.421c-2.143-.219-4,.578-4.733,2.284a2.7,2.7,0,0,1-2.471,1.8,4.6,4.6,0,0,0-3.447,6.352,1,1,0,0,0,1.08.727c1.83-.045,3.662-.016,5.493-.016h4.078M67.467,64.38H56.611v5.863H67.467ZM56.6,54.429H67.484V48.622H56.6Zm19.7,23.132c2.613,0,5.157.017,7.7-.029.23,0,.545-.371.666-.639a4.584,4.584,0,0,0-3.622-6.432,2.265,2.265,0,0,1-2.158-1.577,3.781,3.781,0,0,0-2.585-2.249Zm-8.8-44.707H56.6v5.768H67.49Z" transform="translate(0)" fill="#051db1"/>
    <path id="Trazado_873" data-name="Trazado 873" d="M90.551,36.852c-.659,0-1.318.011-1.977,0a2,2,0,0,1-2.153-1.981c-.062-1.458-.059-2.923,0-4.382a1.98,1.98,0,0,1,2.047-2.006c1.431-.045,2.866-.048,4.3,0a1.994,1.994,0,0,1,2.024,2.111q.034,2.062,0,4.125a2.02,2.02,0,0,1-2.173,2.131c-.688.012-1.375,0-2.063,0m1.613-5.728H89.045V34.25h3.119Z" transform="translate(-66.467 -21.89)" fill="#051db1"/>
    <path id="Trazado_874" data-name="Trazado 874" d="M182.453,91.476c0-.688-.015-1.376,0-2.062a1.975,1.975,0,0,1,1.955-2.084c1.487-.063,2.981-.063,4.467,0A1.911,1.911,0,0,1,190.8,89.27c.066,1.486.07,2.98,0,4.466A1.973,1.973,0,0,1,188.64,95.7c-1.346.017-2.693.019-4.04,0a2.021,2.021,0,0,1-2.145-2.159c-.015-.687,0-1.375,0-2.062m2.617,1.583H188.2V89.933H185.07Z" transform="translate(-140.396 -67.166)" fill="#051db1"/>
    <path id="Trazado_875" data-name="Trazado 875" d="M182.453,32.612c0-.688-.017-1.375,0-2.062a1.971,1.971,0,0,1,1.972-2.065c1.459-.057,2.923-.054,4.382,0a1.932,1.932,0,0,1,1.991,1.96c.065,1.486.068,2.979,0,4.465a1.952,1.952,0,0,1-2.095,1.937q-2.062.031-4.125,0a2,2,0,0,1-2.124-2.085c-.02-.715,0-1.432,0-2.148m5.765-1.506h-3.13v3.106h3.13Z" transform="translate(-140.395 -21.887)" fill="#051db1"/>
    <path id="Trazado_876" data-name="Trazado 876" d="M182.455,209.269c0-.716-.021-1.433.005-2.148a1.964,1.964,0,0,1,1.936-2.011c1.488-.053,2.981-.05,4.469,0a1.883,1.883,0,0,1,1.918,1.837c.078,1.542.079,3.094.008,4.636a1.912,1.912,0,0,1-1.964,1.891c-1.46.047-2.923.048-4.383,0a1.984,1.984,0,0,1-1.985-2.056c-.023-.715,0-1.432,0-2.148m2.6,1.593h3.131v-3.135h-3.131Z" transform="translate(-140.396 -157.805)" fill="#051db1"/>
    <path id="Trazado_877" data-name="Trazado 877" d="M94.8,150.415c0,.688.015,1.376,0,2.063a2.009,2.009,0,0,1-2.028,2.108c-1.432.039-2.866.036-4.3,0a1.991,1.991,0,0,1-2.043-2.01c-.055-1.459-.057-2.923,0-4.382a1.989,1.989,0,0,1,2.068-1.986q2.1-.061,4.212,0a2.028,2.028,0,0,1,2.087,2.144c.017.687,0,1.375,0,2.063m-2.63-1.591H89.053v3.164h3.113Z" transform="translate(-66.471 -112.486)" fill="#051db1"/>
    <path id="Trazado_878" data-name="Trazado 878" d="M182.454,150.332c0-.688-.017-1.376,0-2.062a1.98,1.98,0,0,1,1.982-2.058c1.459-.053,2.923-.052,4.383,0a1.914,1.914,0,0,1,1.968,1.888c.074,1.514.077,3.037.007,4.551a1.962,1.962,0,0,1-2.1,1.937q-2.063.038-4.126,0a2.015,2.015,0,0,1-2.114-2.106c-.019-.716,0-1.432,0-2.148m2.626,1.637h3.109V148.8H185.08Z" transform="translate(-140.396 -112.482)" fill="#051db1"/>
    <path id="Trazado_879" data-name="Trazado 879" d="M94.8,209.282c0,.716.019,1.433-.006,2.149a2,2,0,0,1-2,2.053c-1.46.047-2.924.047-4.384,0a1.965,1.965,0,0,1-1.984-1.977c-.06-1.459-.059-2.923,0-4.382a2.008,2.008,0,0,1,2.128-2.018c1.375-.029,2.752-.031,4.126,0a2.037,2.037,0,0,1,2.118,2.2c.013.659,0,1.318,0,1.977m-5.77,1.574h3.138v-3.129H89.026Z" transform="translate(-66.472 -157.815)" fill="#051db1"/>
    <path id="Trazado_880" data-name="Trazado 880" d="M94.8,91.539c0,.659.011,1.318,0,1.977a2.03,2.03,0,0,1-2.13,2.18q-2.063.034-4.126,0a2,2,0,0,1-2.117-2.024c-.055-1.43-.052-2.866,0-4.3a2.01,2.01,0,0,1,2.092-2.059c1.4-.044,2.809-.047,4.212,0a2.027,2.027,0,0,1,2.073,2.16c.016.687,0,1.375,0,2.063m-5.784,1.535h3.133V89.95H89.011Z" transform="translate(-66.47 -67.164)" fill="#051db1"/>
    <path id="Trazado_881" data-name="Trazado 881" d="M142.837,91.539c0,.745.032,1.491-.008,2.233a1.932,1.932,0,0,1-1.931,1.914q-2.232.063-4.468,0a1.885,1.885,0,0,1-1.905-1.842c-.06-1.544-.06-3.093,0-4.636a1.911,1.911,0,0,1,1.965-1.884c1.459-.054,2.923-.058,4.381,0a1.975,1.975,0,0,1,1.974,2.066c.025.715,0,1.432,0,2.147h-.009m-2.612-1.6h-3.114v3.138h3.114Z" transform="translate(-103.485 -67.165)" fill="#051db1"/>
    <path id="Trazado_882" data-name="Trazado 882" d="M142.837,150.394c0,.716.023,1.433,0,2.148a1.974,1.974,0,0,1-1.995,2.04q-2.189.061-4.382,0a1.91,1.91,0,0,1-1.945-1.9c-.055-1.515-.053-3.036,0-4.551a1.88,1.88,0,0,1,1.852-1.9c1.515-.069,3.037-.067,4.553-.006a1.952,1.952,0,0,1,1.918,2.026c.028.715.005,1.432.006,2.148m-2.6-1.555h-3.118v3.115h3.118Z" transform="translate(-103.477 -112.484)" fill="#051db1"/>
    <path id="Trazado_883" data-name="Trazado 883" d="M142.82,209.283c0,.716.023,1.433,0,2.148a1.977,1.977,0,0,1-1.991,2.047c-1.46.046-2.923.048-4.382,0a1.936,1.936,0,0,1-1.958-1.986q-.071-2.188,0-4.381a1.955,1.955,0,0,1,2.029-2.005c1.431-.038,2.865-.041,4.3,0a1.973,1.973,0,0,1,2.007,2.029c.029.715.005,1.432.005,2.148m-2.64-1.571h-3.07v3.159h3.07Z" transform="translate(-103.46 -157.808)" fill="#051db1"/>
    <path id="Trazado_884" data-name="Trazado 884" d="M142.826,32.687c0,.716.024,1.433-.006,2.147a1.958,1.958,0,0,1-2.019,2.006q-2.147.043-4.3,0a1.923,1.923,0,0,1-2.007-1.922c-.055-1.487-.053-2.978-.006-4.465a1.928,1.928,0,0,1,1.971-1.97c1.459-.053,2.922-.054,4.381,0a1.967,1.967,0,0,1,1.979,2.056c.026.715,0,1.432,0,2.147m-5.739,1.532H140.2V31.1h-3.113Z" transform="translate(-103.466 -21.887)" fill="#051db1"/>
  </g>
</svg>
