<svg xmlns="http://www.w3.org/2000/svg" xmlns:xlink="http://www.w3.org/1999/xlink" width="89.263" height="72.897" viewBox="0 0 89.263 72.897">
  <defs>
    <clipPath id="clip-path">
      <rect id="Rectángulo_3920" data-name="Rectángulo 3920" width="89.263" height="72.897" fill="#051db1"/>
    </clipPath>
  </defs>
  <g id="Grupo_832" data-name="Grupo 832" clip-path="url(#clip-path)">
    <path id="Trazado_886" data-name="Trazado 886" d="M89.263,36.764a40.505,40.505,0,0,1-1.692,5.356,15.233,15.233,0,0,1-16.484,8.208A15.347,15.347,0,0,1,73.714,19.9c.689-.018,1.381.072,2.382.129a52.591,52.591,0,0,0-2.054-5.3,20.042,20.042,0,0,0-22-10.882,18.888,18.888,0,0,0-9.884,5.187c-2.086,2.013-2.4,2.025-4.459.016A19.981,19.981,0,0,0,9,10.074,21.223,21.223,0,0,0,3.508,23.409c-.186,3.456.991,6.559,2.545,9.552a.9.9,0,0,0,.689.335c5.086.019,10.171,0,15.257.03.648,0,.678-.4.794-.806q1.935-6.733,3.867-13.467a4.936,4.936,0,0,1,.383-1.059,1.7,1.7,0,0,1,2.946-.033,4.077,4.077,0,0,1,.354.885q4,12.79,8,25.581c.085.272.182.539.359,1.062.167-.5.267-.775.355-1.056q1.443-4.609,2.885-9.218c.429-1.363.92-1.725,2.336-1.728q4.01-.009,8.021,0a3.984,3.984,0,0,1,.608.033,1.772,1.772,0,0,1,1.641,1.81,1.719,1.719,0,0,1-1.817,1.629c-2,.031-4.01.013-6.015.014H45.054c-.317,1-.636,1.978-.943,2.965q-1.776,5.69-3.546,11.382c-.06.194-.116.39-.189.579a1.718,1.718,0,0,1-1.694,1.257,1.687,1.687,0,0,1-1.674-1.284c-.5-1.514-.961-3.042-1.436-4.566Q32.255,36.673,28.938,26.04c-.077-.248-.164-.493-.336-1.01-.171.532-.276.833-.364,1.14q-1.29,4.474-2.577,8.948c-.388,1.337-.846,1.678-2.251,1.679q-7.018.007-14.036,0H8.412c2.548,5.789,23.236,26.789,31.567,32.072,1.972-1.626,4-3.227,5.945-4.918,2.7-2.342,5.339-4.752,8.006-7.132.844-.754,1.556-.914,2.281-.518a1.692,1.692,0,0,1,.622,2.459,2.9,2.9,0,0,1-.518.584q-7.53,6.48-15.073,12.944a1.765,1.765,0,0,1-2.663,0C28.63,64.362,19.132,55.946,10.951,46.16,8.666,43.428,6.7,40.428,4.629,37.52c-.355-.5-.668-.807-1.311-.733a9.269,9.269,0,0,1-1.481,0,1.719,1.719,0,0,1-.295-3.425c.222-.047.446-.083.681-.126-5.536-10.577.14-23.3,7.885-28.85,7.033-5.042,19.846-7.227,29.766,1.8,1.4-.991,2.73-2.09,4.2-2.941A23.638,23.638,0,0,1,78.852,17.5c.255.921.389,1.876.662,2.791a1.657,1.657,0,0,0,.688.96,15.351,15.351,0,0,1,8.935,12.156.707.707,0,0,0,.126.218ZM73.924,47.08A11.851,11.851,0,1,0,62.064,35.228,11.856,11.856,0,0,0,73.924,47.08" transform="translate(0 0.001)" fill="#051db1"/>
    <path id="Trazado_887" data-name="Trazado 887" d="M249.952,220.73a1.827,1.827,0,0,1,1.778-1.775,1.8,1.8,0,0,1,1.717,1.74,1.837,1.837,0,0,1-1.794,1.762,1.725,1.725,0,0,1-1.7-1.727" transform="translate(-191.397 -167.662)" fill="#051db1"/>
    <path id="Trazado_888" data-name="Trazado 888" d="M287.395,125.735c-1.547,0-2.993.016-4.438-.005a1.691,1.691,0,0,1-1.869-1.448c-.174-1.165.572-1.979,1.918-2.024,1.1-.037,2.208-.009,3.312-.009h1.077c0-1.195,0-2.346,0-3.5,0-.378-.019-.757.013-1.132a1.717,1.717,0,0,1,1.743-1.7,1.691,1.691,0,0,1,1.713,1.726c.049,1.277.016,2.557.018,3.835,0,.225,0,.45,0,.769,1.469,0,2.855-.011,4.241,0,1.129.012,1.828.466,2.037,1.279a1.691,1.691,0,0,1-1.691,2.188c-1.478.043-2.959.01-4.587.01,0,1.079,0,2.11,0,3.14,0,.523.027,1.049-.019,1.568a1.766,1.766,0,0,1-1.693,1.679,1.742,1.742,0,0,1-1.753-1.7c-.056-1.16-.019-2.324-.022-3.486,0-.347,0-.695,0-1.191" transform="translate(-215.22 -88.764)" fill="#051db1"/>
  </g>
</svg>
