<svg xmlns="http://www.w3.org/2000/svg" xmlns:xlink="http://www.w3.org/1999/xlink" width="45.169" height="45.716" viewBox="0 0 45.169 45.716">
  <defs>
    <clipPath id="clip-path">
      <rect id="Rectángulo_3938" data-name="Rectángulo 3938" width="45.169" height="45.716" fill="#fff"/>
    </clipPath>
  </defs>
  <g id="Grupo_867" data-name="Grupo 867" transform="translate(2.525 -9.736)">
    <g id="Grupo_865" data-name="Grupo 865" transform="translate(-2.525 9.736)" clip-path="url(#clip-path)">
      <path id="Trazado_926" data-name="Trazado 926" d="M2.959,111.4v-.672q0-11.941,0-23.881A4.112,4.112,0,0,1,6.528,82.6a22.544,22.544,0,0,1,2.6-.048q.674-.006,1.348,0c.488.005.768.235.761.615s-.3.6-.782.6c-1.038,0-2.076,0-3.114,0a2.945,2.945,0,0,0-3.158,3.164q0,11.964,0,23.928v.49H40.971v-.487q0-11.941,0-23.881a2.948,2.948,0,0,0-3.2-3.216c-1.224,0-2.448.017-3.671-.017a.95.95,0,0,1-.633-.355.61.61,0,0,1,.046-.583.863.863,0,0,1,.6-.256c1.363-.02,2.726-.032,4.089,0a4.114,4.114,0,0,1,3.989,3.994c.03,1.331.009,2.664.009,4q0,10.129,0,20.257v.588c.743,0,1.436,0,2.129,0,.653,0,.858.219.844.871a5.9,5.9,0,0,1-5.581,5.611c-.139.005-.279.005-.418.005q-16.59,0-33.179,0a5.87,5.87,0,0,1-5.855-4.615A5.97,5.97,0,0,1,0,112.25c-.031-.626.187-.848.809-.854.695-.006,1.39,0,2.147,0M1.252,112.62c.077.315.121.555.194.786a4.673,4.673,0,0,0,4.683,3.245q16.445,0,32.891,0c.139,0,.279,0,.418-.008a4.644,4.644,0,0,0,4.277-3.223c.078-.243.121-.5.184-.766-.159-.016-.25-.032-.342-.033q-6.411,0-12.822-.007a.414.414,0,0,0-.458.334,2.777,2.777,0,0,1-2.7,1.907q-5.273.025-10.545,0a2.664,2.664,0,0,1-2.625-1.791c-.156-.4-.356-.449-.713-.448q-5.923.014-11.846.006Zm14.307.04a1.665,1.665,0,0,0,1.635.983q5.11,0,10.219,0a2.325,2.325,0,0,0,.508-.041,1.525,1.525,0,0,0,1.139-.939Z" transform="translate(0 -72.162)" fill="#fff"/>
      <path id="Trazado_927" data-name="Trazado 927" d="M113.8,54.228a3.734,3.734,0,0,1,.253.906c.028,1.3.014,2.6.011,3.9,0,.586-.2.831-.77.789-.86-.063-1.475.034-1.879,1a2.4,2.4,0,0,1-2.254,1.316c-.417.019-.836.018-1.254,0a2.859,2.859,0,0,1-2.679-1.942c-.1-.275-.22-.4-.523-.373a9.01,9.01,0,0,1-1.068,0c-.494-.019-.711-.229-.715-.718-.009-1.378-.019-2.757.011-4.134a3.2,3.2,0,0,1,.354-.894,12.352,12.352,0,0,0-2.172-3.662,9.923,9.923,0,1,1,14.731.041,12.212,12.212,0,0,0-2.177,3.75l.13.012m-4.673.009c1.035,0,1.994.01,2.953-.012a.489.489,0,0,0,.346-.268,18.2,18.2,0,0,1,2.823-4.713,8.246,8.246,0,0,0,1.177-8.985,8.668,8.668,0,0,0-15.653-.4,8.213,8.213,0,0,0,.939,9.322,19.019,19.019,0,0,1,2.873,4.791c.042.107.174.253.266.254,1,.018,2,.011,3.048.011v-.561c0-1.673-.094-3.352.029-5.015a3.221,3.221,0,0,0-1.337-3.194.932.932,0,0,1-.132-.131c-.346-.365-.381-.7-.1-.973s.623-.239.971.118c.377.386.734.79,1.174,1.268.455-.491.822-.907,1.211-1.3a.618.618,0,0,1,.939-.086.64.64,0,0,1-.078.944c-.377.389-.788.748-1.138,1.16a1.231,1.231,0,0,0-.3.714c-.023,2.183-.013,4.367-.013,6.551Zm-4.96,4.337h8.646V55.5h-8.646Zm6.361,1.291h-4.106c.6,1.271,1.7,1.061,2.718,1.043a1.47,1.47,0,0,0,1.389-1.043" transform="translate(-86.18 -29.604)" fill="#fff"/>
      <path id="Trazado_928" data-name="Trazado 928" d="M82.614,132.5V111.989H80.088c-.155,0-.311.009-.464,0a.565.565,0,0,1-.581-.6.541.541,0,0,1,.564-.607c1.224-.016,2.447-.012,3.671,0a.579.579,0,0,1,.588.55,2.821,2.821,0,0,1,.012.464q0,10.478,0,20.956c0,.86-.14,1-.988,1H52.726c-.874,0-1-.127-1-.98q0-10.525,0-21.049c0-.8.154-.95.943-.95.868,0,1.735,0,2.6,0,.5,0,.758.222.752.618s-.266.6-.773.6c-.742,0-1.485,0-2.263,0V132.5Z" transform="translate(-45.222 -96.848)" fill="#fff"/>
      <path id="Trazado_929" data-name="Trazado 929" d="M120.094,14.959c-.108.126-.221.377-.4.431a.76.76,0,0,1-.659-.11c-.6-.683-1.162-1.4-1.7-2.132a.5.5,0,0,1,.154-.764c.205-.1.622-.114.739.016.626.7,1.19,1.456,1.767,2.2a1.279,1.279,0,0,1,.1.362" transform="translate(-102.489 -10.758)" fill="#fff"/>
      <path id="Trazado_930" data-name="Trazado 930" d="M215.9,15.5a.606.606,0,0,1-.582-.9,26.36,26.36,0,0,1,1.734-2.164.821.821,0,0,1,.737-.04.5.5,0,0,1,.176.761c-.547.746-1.135,1.461-1.724,2.175-.087.105-.266.134-.341.169" transform="translate(-188.171 -10.778)" fill="#fff"/>
      <path id="Trazado_931" data-name="Trazado 931" d="M173.923,1.774c0,.355.008.711,0,1.066-.013.455-.244.727-.605.735s-.612-.256-.619-.71c-.011-.726,0-1.453,0-2.179a.6.6,0,0,1,.6-.685c.36-.026.613.263.629.706.012.355,0,.711,0,1.066" transform="translate(-150.988 0)" fill="#fff"/>
    </g>
  </g>
</svg>
