<svg id="Grupo_827" data-name="Grupo 827" xmlns="http://www.w3.org/2000/svg" xmlns:xlink="http://www.w3.org/1999/xlink" width="54.912" height="52.46" viewBox="0 0 54.912 52.46">
  <defs>
    <clipPath id="clip-path">
      <rect id="Rectángulo_3917" data-name="Rectángulo 3917" width="54.912" height="52.46" fill="#013b18"/>
    </clipPath>
  </defs>
  <g id="Grupo_826" data-name="Grupo 826" clip-path="url(#clip-path)">
    <path id="Trazado_865" data-name="Trazado 865" d="M0,45.523c.088-.344.168-.691.267-1.032A6.65,6.65,0,0,1,6.13,39.73c.086-.007.171-.019.324-.036V39q0-13.4,0-26.807a3.5,3.5,0,0,1,2.767-3.81c1.03-.344,2.057-.7,3.105-1.052,0-1.616-.007-3.205,0-4.795A2.477,2.477,0,0,1,14.238.068,2.546,2.546,0,0,1,17.19,1.456a3.668,3.668,0,0,1,.25,1.3c.037.923.011,1.849.011,2.85,1.119-.371,2.166-.714,3.209-1.065,3.347-1.127,6.7-2.251,10.037-3.394a1.1,1.1,0,0,1,1.259.278Q35.57,4.936,39.2,8.431a3.546,3.546,0,0,1,1.138,2.677q-.016,4.745,0,9.489c0,.452-.1.825-.56.987a.8.8,0,0,1-1.046-.817c-.024-.7-.007-1.394-.007-2.091,0-2.484-.012-4.968.007-7.452a2.2,2.2,0,0,0-.722-1.712C36.05,7.636,34.1,5.744,32.079,3.789V23.816h13.6c2,0,2.991,1,2.992,3q0,6.112,0,12.224v.624a18.729,18.729,0,0,1,2.008.169,5.209,5.209,0,0,1,4.209,5.007c.033,1.858.019,3.717.005,5.576a1.975,1.975,0,0,1-1.84,2.008,6.586,6.586,0,0,1-.7.022q-24.9,0-49.807.014A2.374,2.374,0,0,1,0,50.885V45.523M30.412,14.836c-.247.074-.4.114-.549.165L17.388,19.195c-1.285.432-2.562.891-3.861,1.276a1.253,1.253,0,0,1-.963-.18.865.865,0,0,1-.145-.8,1.175,1.175,0,0,1,.671-.533c1.819-.635,3.65-1.235,5.476-1.85q5.68-1.91,11.357-3.83c.179-.061.462-.214.466-.33.033-1.278.021-2.557.021-3.884-.221.06-.373.093-.521.143Q24.942,10.864,20,12.529q-3.2,1.075-6.393,2.144c-.636.212-1.087.047-1.243-.439s.113-.871.75-1.088c.439-.15.88-.293,1.32-.441q7.76-2.61,15.523-5.213c.343-.114.486-.256.468-.633-.033-.713-.01-1.429-.01-2.144V2.973c-.274.082-.459.132-.642.193Q19.679,6.556,9.586,9.947A1.912,1.912,0,0,0,8.063,12.1q0,19.058,0,38.117c0,.189.016.378.025.582h4.237c0-1.931,0-3.824,0-5.716a2.023,2.023,0,0,1,1.7-2.254q3.478-.975,6.958-1.942A1.776,1.776,0,0,1,23.468,42.8q0,3.7,0,7.4V50.8h6.907V32.22c-.178.049-.314.079-.444.123q-3.4,1.14-6.8,2.284c-1.048.352-2.094.711-3.147,1.046a.769.769,0,0,1-1.029-.5.785.785,0,0,1,.535-1.016c.116-.047.237-.079.355-.118,3.363-1.134,6.725-2.274,10.094-3.392a.58.58,0,0,0,.479-.679c-.031-.66-.009-1.322-.009-1.983V26.415c-.244.073-.4.113-.545.163L17.7,30.667c-1.386.466-2.765.958-4.165,1.379a1.252,1.252,0,0,1-.963-.176.843.843,0,0,1-.149-.8,1.289,1.289,0,0,1,.72-.551c3.07-1.053,6.149-2.08,9.225-3.115,2.536-.853,5.073-1.7,7.6-2.569.169-.058.422-.234.425-.36.032-1.261.019-2.523.019-3.844-.239.07-.407.113-.571.168l-14.4,4.844A19.922,19.922,0,0,1,13.4,26.3a1.072,1.072,0,0,1-.882-.273.975.975,0,0,1-.041-.865c.1-.21.429-.353.686-.441,2.43-.832,4.866-1.645,7.3-2.464q4.742-1.6,9.48-3.2c.18-.061.444-.258.447-.4.035-1.247.021-2.495.021-3.818m1.634,30.975H43.878c0-.305-.011-.585,0-.865a5.194,5.194,0,0,1,2.775-4.583.72.72,0,0,0,.419-.748q-.016-6.4-.007-12.809c0-1.082-.291-1.38-1.356-1.38q-6.539,0-13.077,0c-.189,0-.378.017-.588.028Zm.009,4.99h11.78V47.488H32.055Zm21.212-4.982a3.724,3.724,0,0,0-1.9-4.033,3.983,3.983,0,0,0-4.444.324,3.628,3.628,0,0,0-1.353,3.709Zm-7.756,5.02h7.061c.306,0,.689.027.7-.386.037-.991.012-1.984.012-2.973H45.511ZM21.833,42.319l-3.1.866V50.8h3.1Zm-4.8,8.488V43.654c-.96.271-1.873.5-2.764.8a.727.727,0,0,0-.321.567c-.029,1.247-.015,2.5-.015,3.743v2.042ZM1.61,47.465c0,.982,0,1.909,0,2.836,0,.4.213.537.573.537H6.417V47.465Zm4.809-1.648V41.364c-2.323-.09-4.824,2.284-4.7,4.453ZM13.937,6.734c1.906-.358,1.906-.358,1.906-2.172,0-.464.007-.928,0-1.391a4.25,4.25,0,0,0-.066-.9.889.889,0,0,0-1.034-.642.808.808,0,0,0-.8.843c-.016,1.407-.005,2.815-.005,4.263" transform="translate(-0.001 0)" fill="#013b18"/>
    <path id="Trazado_866" data-name="Trazado 866" d="M87.015,249.229c-.6-.012-.874-.216-.97-.6a.7.7,0,0,1,.41-.89c1.067-.392,2.146-.757,3.235-1.083a.7.7,0,0,1,.847.488.666.666,0,0,1-.285.927c-1.119.448-2.268.82-3.237,1.163" transform="translate(-73.692 -211.291)" fill="#013b18"/>
    <path id="Trazado_867" data-name="Trazado 867" d="M243.893,238.582c-1.214,0-2.429,0-3.643,0-1.121,0-1.6-.485-1.611-1.589,0-.554-.01-1.107,0-1.661a1.313,1.313,0,0,1,1.331-1.382q3.964-.027,7.929,0a1.277,1.277,0,0,1,1.3,1.241,15.176,15.176,0,0,1,0,2.14,1.285,1.285,0,0,1-1.4,1.246c-1.3.016-2.607,0-3.911.005m3.709-3h-7.319v1.348H247.6Z" transform="translate(-204.447 -200.423)" fill="#013b18"/>
    <path id="Trazado_868" data-name="Trazado 868" d="M243.959,191.254c1.232,0,2.465,0,3.7,0a1.4,1.4,0,0,1,1.574,1.541c.012.553.019,1.108,0,1.661a1.341,1.341,0,0,1-1.451,1.437q-3.857.022-7.715,0a1.323,1.323,0,0,1-1.425-1.449q-.014-.857,0-1.715a1.354,1.354,0,0,1,1.465-1.472c1.286-.011,2.572,0,3.858,0m-3.694,3h7.324V192.9h-7.324Z" transform="translate(-204.444 -163.853)" fill="#013b18"/>
    <path id="Trazado_869" data-name="Trazado 869" d="M241.23,281.759c-.411,0-.822.01-1.232,0a1.326,1.326,0,0,1-1.372-1.341c-.019-.66-.02-1.321,0-1.981a1.281,1.281,0,0,1,1.291-1.3c.892-.027,1.785-.025,2.677,0a1.272,1.272,0,0,1,1.312,1.275c.03.695.03,1.393,0,2.088a1.292,1.292,0,0,1-1.282,1.257c-.463.022-.928,0-1.392,0Zm-.981-1.639h2.031v-1.344h-2.031Z" transform="translate(-204.428 -237.416)" fill="#013b18"/>
  </g>
</svg>
