<svg id="Grupo_889" data-name="Grupo 889" xmlns="http://www.w3.org/2000/svg" xmlns:xlink="http://www.w3.org/1999/xlink" width="51.725" height="51.726" viewBox="0 0 51.725 51.726">
  <defs>
    <clipPath id="clip-path">
      <rect id="Rectángulo_3952" data-name="Rectángulo 3952" width="51.725" height="51.726" fill="#fff"/>
    </clipPath>
  </defs>
  <g id="Grupo_888" data-name="Grupo 888" clip-path="url(#clip-path)">
    <path id="Trazado_932" data-name="Trazado 932" d="M92.206,162.188a3.373,3.373,0,0,0-3.245-2.024c-1.858-.012-3.716-.007-5.575,0l-2.041.005q.171-.535.344-1.063c.428-1.318.833-2.563,1.166-3.862a4.864,4.864,0,0,0-3.616-6.005l-.206-.05c-.728-.175-1.168-.284-1.558-.024s-.487.747-.621,1.545l-.032.117a32.183,32.183,0,0,1-5.181,10.98c-.369.543-.767,1.066-1.12,1.533l-.176.233-.2-.1a3.024,3.024,0,0,0-1.283-.429c-2.023-.05-4.079-.043-6.063-.033l-1.423.007a2.144,2.144,0,0,0-2.181,2.189q-.008,6.577,0,13.152a2.137,2.137,0,0,0,2.171,2.184q1.783.008,3.565.011,1.959,0,3.916-.026a2.33,2.33,0,0,0,.955-.283,3.238,3.238,0,0,1,.35-.149l.147-.052a1.491,1.491,0,0,1,.364-.1c.673.059,1.345.135,2.018.211,1.231.14,2.5.284,3.771.317,1.864.049,3.755.04,5.583.026,1.427-.011,2.855-.019,4.285,0a3.452,3.452,0,0,0,2.728-1.276,3.111,3.111,0,0,0,.442-2.814c-.1-.337-.082-.4.211-.587a3.122,3.122,0,0,0,1.167-4.164c-.152-.305-.154-.375.157-.66a3.222,3.222,0,0,0,.6-4.185c-.243-.4-.235-.506.063-.833a3.284,3.284,0,0,0,.517-3.792m-3.182,10.257a1.2,1.2,0,0,1-.458,1.74,2.132,2.132,0,0,0-1.014,2.731,1.245,1.245,0,0,1-.072,1.126,1.119,1.119,0,0,1-.949.405l-.685.008c-3.062.029-6.226.066-9.333,0-1.191-.027-2.41-.159-3.59-.287a17.072,17.072,0,0,0-1.881-.134H71a.57.57,0,0,1-.012-.15q.007-2.148.006-4.3c0-2.471,0-4.941.023-7.412,0-.057.029-.274.372-.7a40.033,40.033,0,0,0,6.06-10.063c.418-1.04.753-2.125,1.077-3.174.108-.352.218-.705.33-1.057a2.786,2.786,0,0,1,2.066,2.2,5.885,5.885,0,0,1-.135,2.048,18.311,18.311,0,0,1-1.943,5.073,1.167,1.167,0,0,0-.118,1.19,1.267,1.267,0,0,0,1.133.487q4.658.008,9.317.033a1.286,1.286,0,0,1,1.28.946,1.366,1.366,0,0,1-.319,1.592,2.142,2.142,0,0,0-.3,2.957,1.318,1.318,0,0,1-.282,1.925,2.158,2.158,0,0,0-.531,2.824m-27.783-7.4a.266.266,0,0,1,.121-.019q3.731,0,7.463,0a.283.283,0,0,1,.132.016.491.491,0,0,1,.035.235c-.007,1.6-.006,3.2-.005,4.8L69,173.6q0,2.2,0,4.4c0,.389-.058.513.007.516a1.989,1.989,0,0,1-.54.039H61.717c-.281,0-.408-.016-.45-.016-.012,0-.017,0-.017,0a1.648,1.648,0,0,1-.05-.577q-.007-5.671,0-11.345c0-.49.012-.983.043-1.575" transform="translate(-51.172 -128.827)" fill="#fff"/>
    <path id="Trazado_933" data-name="Trazado 933" d="M132.793,8.741c.448.4.9.809,1.353,1.206a.428.428,0,0,1,.083.087.36.36,0,0,1-.016.118c-.142.59-.265,1.184-.388,1.778-.1.478-.2.957-.308,1.434a1.707,1.707,0,0,0,.621,1.919,1.6,1.6,0,0,0,.953.325,2.1,2.1,0,0,0,1.065-.33c.37-.219.743-.434,1.115-.649.56-.323,1.12-.645,1.671-.982.136-.083.171-.089.33.007,1.138.691,2.078,1.238,2.959,1.721a1.688,1.688,0,0,0,1.68,0,1.755,1.755,0,0,0,.846-1.52l-.263-1.36c-.156-.769-.313-1.54-.5-2.3-.037-.149-.04-.165.112-.3.478-.413.946-.836,1.415-1.259q.5-.448.995-.892a1.7,1.7,0,0,0,.612-1.924,1.729,1.729,0,0,0-1.64-1.168c-.431-.041-.862-.088-1.291-.135-.661-.072-1.322-.145-2.087-.215a.365.365,0,0,1-.064-.116c-.251-.587-.511-1.172-.772-1.755-.194-.434-.388-.869-.578-1.3A1.673,1.673,0,0,0,139.1,0h-.011a1.679,1.679,0,0,0-1.592,1.148c-.187.436-.382.87-.575,1.3-.245.548-.489,1.1-.722,1.648-.1.232-.129.234-.28.244-.631.043-1.259.111-1.888.179-.423.047-.847.093-1.272.131a1.79,1.79,0,0,0-1.694,1.188,1.708,1.708,0,0,0,.628,1.915c.369.326.734.655,1.1.985m8.882-2.458c1,.085,2.008.192,3.01.3l.124.013-.33.3c-.656.6-1.312,1.2-1.991,1.767a1.487,1.487,0,0,0-.523,1.611c.225.991.433,1.985.642,2.979l.007.034-.162-.09c-.765-.426-1.488-.828-2.162-1.269a1.984,1.984,0,0,0-2.4.019c-.676.436-1.387.83-2.14,1.248l-.178.1.007-.034c.2-.964.4-1.928.628-2.884a1.614,1.614,0,0,0-.563-1.773c-.634-.523-1.242-1.078-1.851-1.633l-.4-.365.724-.073c.84-.081,1.679-.162,2.514-.283a1.63,1.63,0,0,0,1.126-.827c.375-.757.715-1.532,1.053-2.308l.29-.661.036.08c.425.942.851,1.883,1.248,2.836a1.4,1.4,0,0,0,1.29.918" transform="translate(-113.235 0)" fill="#fff"/>
    <path id="Trazado_934" data-name="Trazado 934" d="M8.3,63.775c.6.363,1.2.711,1.806,1.059.362.208.725.417,1.086.629a1.838,1.838,0,0,0,.934.275A1.618,1.618,0,0,0,13.1,65.4a1.647,1.647,0,0,0,.629-1.8c-.105-.466-.2-.934-.3-1.4-.13-.625-.26-1.249-.408-1.869-.038-.158-.033-.189.109-.312.642-.556,1.273-1.125,1.9-1.695l.643-.58a1.647,1.647,0,0,0,.483-1.794A1.621,1.621,0,0,0,14.7,54.806l-1.029-.11c-.789-.085-1.576-.171-2.368-.235-.176-.013-.18-.023-.231-.144-.236-.559-.484-1.114-.731-1.67-.2-.445-.4-.888-.589-1.335A1.7,1.7,0,0,0,8.128,50.13H8.117a1.742,1.742,0,0,0-1.618,1.2l-.069.16c-.406.943-.813,1.888-1.259,2.808a.456.456,0,0,1-.207.145c-.96.134-1.988.245-3.235.352A1.715,1.715,0,0,0,.1,55.962a1.657,1.657,0,0,0,.585,1.876c.259.23.516.464.772.7.513.468,1.027.934,1.56,1.379a.464.464,0,0,1,.194.6c-.2.795-.369,1.6-.524,2.349l-.177.841-.011.087a1.848,1.848,0,0,0,.8,1.695,1.7,1.7,0,0,0,1.725,0c.951-.516,1.921-1.078,2.968-1.716.137-.084.158-.09.316.009m-3.654-.569.063-.3c.183-.869.366-1.737.572-2.6a1.364,1.364,0,0,0-.471-1.457c-.437-.378-.866-.764-1.3-1.15-.36-.323-.72-.646-1.085-.966.482-.058.965-.116,1.448-.169.191-.021.383-.035.574-.049a8.675,8.675,0,0,0,1.26-.157A1.722,1.722,0,0,0,6.8,55.53c.371-.75.705-1.516,1.04-2.282l.3-.675.211.465c.347.763.694,1.526,1,2.306a1.614,1.614,0,0,0,1.512,1.081c.912.078,1.821.176,2.731.275l.245.025-.141.13c-.682.629-1.388,1.28-2.109,1.875a1.588,1.588,0,0,0-.568,1.771c.2.789.366,1.587.532,2.384l.111.522-.4-.23c-.772-.439-1.545-.878-2.306-1.336a1.454,1.454,0,0,0-1.633.007c-.823.494-1.659.967-2.494,1.44l-.217.123c.013-.069.026-.136.041-.2" transform="translate(0 -43.34)" fill="#fff"/>
    <path id="Trazado_935" data-name="Trazado 935" d="M278.079,56.017a1.668,1.668,0,0,0-1.554-1.2c-.428-.041-.855-.087-1.282-.134-.683-.073-1.367-.147-2.052-.2-.153-.012-.161-.017-.221-.159-.288-.683-.59-1.36-.892-2.038l-.455-1.025a1.783,1.783,0,0,0-1.858-1.106h0a1.61,1.61,0,0,0-1.314,1.092l-.306.7c-.35.8-.7,1.6-1.075,2.387a.408.408,0,0,1-.152.125c-1.047.143-2.125.259-3.3.356A1.7,1.7,0,0,0,262.6,57.87c.365.318.724.643,1.083.968.439.4.878.8,1.329,1.179.162.138.167.178.123.359-.138.573-.258,1.151-.378,1.729-.1.475-.2.949-.306,1.422a1.7,1.7,0,0,0,2.608,1.91c.388-.229.777-.452,1.167-.677.56-.323,1.12-.645,1.671-.979.144-.088.152-.081.264-.013.481.3.97.579,1.46.86.408.235.816.47,1.22.714a2.362,2.362,0,0,0,1.2.41,1.6,1.6,0,0,0,.975-.342,1.845,1.845,0,0,0,.566-2.045c-.087-.39-.171-.782-.255-1.174-.129-.6-.257-1.2-.4-1.8-.046-.2-.033-.241.111-.362.591-.5,1.163-1.018,1.735-1.538l.727-.657a1.646,1.646,0,0,0,.574-1.817M266.6,62.945c.177-.862.353-1.723.568-2.576a1.435,1.435,0,0,0-.521-1.553c-.739-.636-1.462-1.294-2.184-1.95l-.131-.119c.517-.06.993-.116,1.47-.167.568-.061,1.137-.122,1.706-.163a1.36,1.36,0,0,0,1.237-.913c.366-.874.754-1.738,1.142-2.6l.14-.313.226.5c.339.744.678,1.489.976,2.248a1.654,1.654,0,0,0,1.558,1.116c.888.067,1.773.163,2.659.26l.286.032-.288.26c-.684.622-1.369,1.245-2.07,1.846a1.393,1.393,0,0,0-.489,1.506c.217.916.41,1.835.6,2.756l.071.34a7.855,7.855,0,0,1-1.327-.8,3.174,3.174,0,0,0-4.407.007,8.21,8.21,0,0,1-1.331.8Z" transform="translate(-226.435 -43.358)" fill="#fff"/>
    <path id="Trazado_936" data-name="Trazado 936" d="M97.639,336.725h.019a1.252,1.252,0,0,0,.9-2.108,1.269,1.269,0,0,0-.913-.349h-.019a1.206,1.206,0,0,0-1.251,1.207,1.221,1.221,0,0,0,.357.884,1.273,1.273,0,0,0,.908.366" transform="translate(-83.321 -288.993)" fill="#fff"/>
  </g>
</svg>
